<?xml version="1.0" encoding="iso-8859-1"?>
<!-- Uploaded to: SVG Repo, www.svgrepo.com, Generator: SVG Repo Mixer Tools -->
<svg fill="#000000" height="800px" width="800px" version="1.1" id="Layer_1" xmlns="http://www.w3.org/2000/svg" xmlns:xlink="http://www.w3.org/1999/xlink" 
	 viewBox="0 0 512 512" xml:space="preserve">
<g>
	<g>
		<path d="M453.909,105.92h-22.805c-6.891,0-12.523-5.632-12.523-12.565C418.56,41.877,376.981,0,325.909,0h-22.827
			C297.429,0,292.01,2.24,288,6.251l-21.333,21.333c-3.989,3.989-6.251,9.429-6.251,15.083c0-5.653-2.24-11.093-6.251-15.083
			L232.832,6.251C228.843,2.24,223.424,0,217.749,0h-24.277c-24.981,0-48.448,9.941-66.048,28.011
			c-17.813,18.304-27.264,42.432-26.603,67.904c0.107,3.477-1.536,5.888-2.923,7.317c-1.237,1.28-3.947,3.435-8.149,3.435H68.416
			c-35.285,0-64,28.715-64,64s28.693,63.979,63.957,64l0.021,123.349l60.885-58.069c-7.467-11.989-10.027-23.829-7.488-35.136
			c4.437-19.691,22.229-30.848,39.445-41.643l11.776-7.509c17.045-11.029,34.688-22.357,54.357-18.176
			c6.443,1.408,12.288,4.523,17.6,8.981l12.139-14.4c1.173,0,2.133-0.064,3.307-0.064c19.179,0,35.797,0.768,51.029,1.877
			l-44.373,52.565c1.835,9.813,1.728,19.968-0.491,29.995c-4.352,19.627-16.064,36.395-33.024,47.189
			c-12.245,7.808-26.133,11.84-40.32,11.84c-5.44,0-10.944-0.597-16.405-1.792c-5.419-1.216-10.539-3.093-15.467-5.355
			l-92.971,88.64v31.189C68.416,483.349,97.109,512,132.33,512h256.171c35.264,0,63.915-28.651,63.915-63.893v-213.44h1.493
			c34.731,0,53.675-49.557,53.675-75.029C507.584,130.027,483.499,105.92,453.909,105.92z M272.683,446.123
			c-35.072,9.6-71.232-19.627-75.84-41.707c-4.629-22.08,29.867-0.853,64.917-10.453c35.051-9.621,57.408-46.443,62.016-24.363
			C328.405,391.68,307.733,436.501,272.683,446.123z M345.749,341.333c-35.285,0-64-28.715-64-64c0-35.285,28.715-64,64-64
			c35.307,0,64,28.715,64,64C409.749,312.618,381.056,341.333,345.749,341.333z M451.861,192h-7.915
			c-0.853-1.173-1.963-2.219-2.965-3.349c-0.747-0.832-1.408-1.707-2.24-2.517c-1.557-1.536-3.349-2.944-5.163-4.352
			c-0.768-0.576-1.451-1.237-2.261-1.792c-5.504-3.883-11.968-7.296-19.179-10.283c-0.96-0.384-1.984-0.704-2.944-1.088
			c-2.731-1.067-5.504-2.091-8.405-3.051c-1.387-0.448-2.88-0.853-4.309-1.28c-2.603-0.789-5.227-1.579-7.957-2.283
			c-1.643-0.427-3.371-0.811-5.056-1.216c-2.624-0.619-5.248-1.237-7.957-1.813c-1.813-0.363-3.669-0.725-5.547-1.067
			c-2.645-0.512-5.333-1.003-8.043-1.451c-1.941-0.32-3.883-0.619-5.824-0.917c-2.731-0.405-5.461-0.789-8.192-1.152
			c-2.005-0.256-3.989-0.512-5.995-0.747c-2.731-0.32-5.461-0.619-8.213-0.896c-2.027-0.213-4.053-0.405-6.08-0.597
			c-2.773-0.256-5.547-0.469-8.299-0.683c-1.984-0.149-3.925-0.299-5.888-0.427c-2.837-0.192-5.632-0.363-8.427-0.512
			c-1.856-0.107-3.733-0.213-5.589-0.299c-2.837-0.128-5.632-0.235-8.405-0.341c-1.771-0.064-3.541-0.128-5.269-0.192
			c-3.008-0.085-5.888-0.128-8.789-0.192c-1.408-0.021-2.837-0.064-4.203-0.085c-4.245-0.064-8.363-0.085-12.331-0.085
			c-4.16,0-8.512,0.043-12.971,0.107c-1.429,0.021-2.88,0.064-4.331,0.085c-3.115,0.064-6.251,0.128-9.451,0.235
			c-1.771,0.043-3.584,0.107-5.376,0.192c-3.029,0.107-6.08,0.235-9.173,0.384c-1.92,0.085-3.819,0.192-5.76,0.299
			c-3.093,0.192-6.208,0.405-9.344,0.619c-1.899,0.128-3.776,0.256-5.696,0.427c-3.413,0.256-6.827,0.597-10.261,0.917
			c-1.621,0.171-3.221,0.299-4.821,0.469c-5.013,0.533-10.005,1.131-14.933,1.813c-0.384,0.064-0.768,0.128-1.152,0.192
			c-4.523,0.64-9.003,1.344-13.419,2.112c-1.557,0.277-3.051,0.597-4.587,0.896c-3.221,0.619-6.4,1.259-9.515,1.941
			c-1.728,0.384-3.413,0.811-5.099,1.216c-2.859,0.704-5.653,1.429-8.384,2.219c-1.685,0.469-3.328,0.96-4.971,1.472
			c-2.667,0.832-5.248,1.707-7.765,2.624c-1.493,0.533-3.008,1.067-4.459,1.643c-2.667,1.067-5.184,2.219-7.659,3.392
			c-1.088,0.512-2.24,1.003-3.307,1.536c-3.392,1.771-6.592,3.627-9.493,5.632c-0.448,0.299-0.789,0.661-1.237,0.981
			c-2.368,1.728-4.587,3.52-6.549,5.419c-0.853,0.832-1.536,1.728-2.304,2.581c-0.96,1.088-2.069,2.112-2.923,3.264h-7.061
			c-11.755,0-21.333-9.579-21.333-21.333c0-11.755,9.579-21.333,21.333-21.333h21.333c14.507,0,28.608-5.952,38.72-16.32
			c10.048-10.347,15.381-23.915,15.019-38.229c-0.384-13.867,4.779-27.008,14.507-36.992c9.493-9.749,22.101-15.125,35.477-15.125
			h15.445l9.344,9.344c2.667,22.955,15.979,33.323,42.155,33.323c26.197,0,39.509-10.368,42.176-33.323l9.323-9.344h13.995
			c27.563,0,49.984,22.741,50.005,50.709c0,30.443,24.768,55.211,55.189,55.211h22.805c6.08,0,11.008,4.971,11.008,11.051
			C464.917,169.728,457.067,187.563,451.861,192z"/>
	</g>
</g>
<g>
	<g>
		<path d="M345.758,256c-11.776,0-21.333,9.579-21.333,21.333c0,11.755,9.557,21.333,21.333,21.333s21.333-9.579,21.333-21.333
			C367.091,265.579,357.534,256,345.758,256z"/>
	</g>
</g>
<g>
	<g>
		<path d="M220.601,242.674v-0.021c-1.919-2.988-3.093-3.777-3.093-3.777c-2.581,0.469-13.824,7.765-21.291,12.587l-12.331,7.872
			c-7.189,4.501-17.92,11.221-20.331,14.848c0.256,0.213,0.768,1.493,2.048,3.52c4.693,7.36,11.968,12.416,20.459,14.315
			c8.512,1.877,17.216,0.32,24.555-4.352c7.339-4.693,12.437-11.947,14.315-20.437C226.83,258.717,225.273,249.992,220.601,242.674z
			"/>
	</g>
</g>
</svg>