<?xml version="1.0" encoding="utf-8"?>

<!DOCTYPE svg PUBLIC "-//W3C//DTD SVG 1.1//EN" "http://www.w3.org/Graphics/SVG/1.1/DTD/svg11.dtd">
<!-- Uploaded to: SVG Repo, www.svgrepo.com, Generator: SVG Repo Mixer Tools -->
<svg version="1.1" id="_x32_" xmlns="http://www.w3.org/2000/svg" xmlns:xlink="http://www.w3.org/1999/xlink" 
	 viewBox="0 0 512 512"  xml:space="preserve">
<style type="text/css">
	.st0{fill:#000000;}
</style>
<g>
	<rect x="257.774" y="278.631" class="st0" width="6.2" height="8.27"/>
	<path class="st0" d="M468.125,253.275c-26.846,7.319-37.548,10.979-61.828,7.319c-72.588-10.954-45.968-148.272-150.299-148.272
		c-104.33,0-77.702,137.318-150.299,148.272c-24.28,3.66-34.981,0-61.827-7.319c-25.467-6.958-61.878,13.604-33.61,51.227
		c33.61,44.765,103.573,95.176,245.736,95.176c142.172,0,212.127-50.411,245.745-95.176
		C530.002,266.879,493.59,246.316,468.125,253.275z M215.624,235.514c0-15.606,11.93-40.374,40.374-40.374
		c28.445,0,40.374,24.768,40.374,40.374c0,15.598,0,19.266,0,23.86c0,4.594-7.344,14.681-14.681,10.088c0,0,0,10.322,0,13.074
		c0,2.759-5.502,13.78-25.693,13.78c-20.182,0-25.693-11.021-25.693-13.78c0-2.752,0-13.074,0-13.074
		c-7.344,4.593-14.681-5.494-14.681-10.088C215.624,254.781,215.624,251.112,215.624,235.514z M232.4,330.102
		c-1.094,1.262-1.389,3.5-1.514,4.77c-0.27,2.482-1.776,4.754-4.19,5.873c-3.652,1.708-8.009,0.126-9.709-3.525
		c-0.934-1.986-0.867-4.147-0.067-6.007c-1.935-0.572-3.635-1.918-4.56-3.886c-1.716-3.66-0.134-8.018,3.525-9.734
		c2.414-1.119,5.123-0.808,7.176,0.58c1.06,0.715,2.987,1.918,4.636,1.893l10.886-5.09l13.099,6.116L232.4,330.102z
		 M299.637,327.326c-0.926,1.977-2.625,3.314-4.56,3.886c0.798,1.86,0.858,4.03-0.06,6.007c-1.707,3.668-6.066,5.233-9.717,3.525
		c-2.415-1.119-3.929-3.391-4.173-5.873c-0.134-1.27-0.438-3.508-1.531-4.753l-59.833-27.956c-1.649-0.042-3.568,1.178-4.627,1.884
		c-2.07,1.389-4.778,1.683-7.185,0.564c-3.652-1.717-5.232-6.066-3.534-9.726c0.926-1.968,2.634-3.314,4.577-3.895
		c-0.808-1.859-0.875-4.021,0.05-5.998c1.716-3.651,6.058-5.241,9.718-3.533c2.414,1.144,3.92,3.407,4.181,5.872
		c0.134,1.278,0.438,3.525,1.515,4.77l59.833,27.965c1.666,0.025,3.575-1.178,4.644-1.893c2.052-1.389,4.77-1.691,7.168-0.572
		C299.772,319.308,301.353,323.667,299.637,327.326z M304.045,304.603c-2.406,1.127-5.124,0.833-7.176-0.556
		c-1.069-0.715-2.97-1.926-4.636-1.884l-19.3,9.002l-13.107-6.108l27.72-12.956c1.086-1.262,1.372-3.492,1.506-4.77
		c0.261-2.465,1.776-4.745,4.19-5.872c3.642-1.708,8.009-0.126,9.708,3.533c0.925,1.977,0.858,4.14,0.051,5.998
		c1.944,0.572,3.651,1.926,4.576,3.895C309.294,298.545,307.705,302.894,304.045,304.603z"/>
	<path class="st0" d="M267.524,286.901h3.601c1.438,0,2.599-1.17,2.599-2.6v-5.67h-6.2V286.901z"/>
	<rect x="248.031" y="267.854" class="st0" width="6.192" height="8.27"/>
	<rect x="257.774" y="267.854" class="st0" width="6.2" height="8.27"/>
	<path class="st0" d="M238.272,284.301c0,1.43,1.178,2.6,2.608,2.6h3.592v-8.27h-6.2V284.301z"/>
	<path class="st0" d="M238.272,270.462v5.662h6.2v-8.27h-3.592C239.45,267.854,238.272,269.023,238.272,270.462z"/>
	<rect x="248.031" y="278.631" class="st0" width="6.192" height="8.27"/>
	<path class="st0" d="M271.125,267.854h-3.601v8.27h6.2v-5.662C273.724,269.023,272.564,267.854,271.125,267.854z"/>
	<path class="st0" d="M272.059,251.727c5.696,0,10.322-4.627,10.322-10.331c0-5.696-4.627-10.315-10.322-10.315
		c-5.704,0-10.331,4.619-10.331,10.315C261.728,247.099,266.355,251.727,272.059,251.727z"/>
	<path class="st0" d="M239.946,251.727c5.696,0,10.323-4.627,10.323-10.331c0-5.696-4.627-10.315-10.323-10.315
		c-5.704,0-10.331,4.619-10.331,10.315C229.615,247.099,234.242,251.727,239.946,251.727z"/>
	<path class="st0" d="M255.998,258.507c1.422,6.024,7.454,2.473,5.679-0.362l-5.679-8.876l-5.679,8.876
		C248.553,260.981,254.576,264.531,255.998,258.507z"/>
</g>
</svg>